<mxfile host="app.diagrams.net" modified="2023-05-29T11:20:22.469Z" agent="Mozilla/5.0 (X11; Ubuntu; Linux x86_64; rv:109.0) Gecko/20100101 Firefox/113.0" etag="dnObVfiJBZOHXrY3FP5R" version="21.3.3" type="google">
  <diagram id="C5RBs43oDa-KdzZeNtuy" name="Page-1">
    <mxGraphModel grid="1" page="1" gridSize="10" guides="1" tooltips="1" connect="1" arrows="1" fold="1" pageScale="1" pageWidth="1654" pageHeight="1169" math="0" shadow="0">
      <root>
        <mxCell id="WIyWlLk6GJQsqaUBKTNV-0" />
        <mxCell id="WIyWlLk6GJQsqaUBKTNV-1" parent="WIyWlLk6GJQsqaUBKTNV-0" />
        <mxCell id="ne0JyadZq1jZcnPS88El-86" style="edgeStyle=orthogonalEdgeStyle;rounded=0;orthogonalLoop=1;jettySize=auto;html=1;exitX=0.5;exitY=1;exitDx=0;exitDy=0;entryX=0.5;entryY=0;entryDx=0;entryDy=0;" edge="1" parent="WIyWlLk6GJQsqaUBKTNV-1" source="ne0JyadZq1jZcnPS88El-64" target="ne0JyadZq1jZcnPS88El-82">
          <mxGeometry relative="1" as="geometry" />
        </mxCell>
        <mxCell id="ne0JyadZq1jZcnPS88El-64" value="&lt;div&gt;For each action in vector of action&lt;br&gt;&lt;/div&gt;" style="rounded=0;whiteSpace=wrap;html=1;align=left;verticalAlign=top;" vertex="1" parent="WIyWlLk6GJQsqaUBKTNV-1">
          <mxGeometry x="-2215" y="28" width="490" height="442" as="geometry" />
        </mxCell>
        <mxCell id="Gbv1jejS2D5YbB3k_reu-72" value="MiAM Robotics - Strategy::performSecondaryRobotAction" style="shape=table;startSize=30;container=1;collapsible=0;childLayout=tableLayout;fixedRows=1;rowLines=0;fontStyle=0;strokeColor=default;fontSize=16;" vertex="1" parent="WIyWlLk6GJQsqaUBKTNV-1">
          <mxGeometry x="-2310" y="970" width="554" height="120" as="geometry" />
        </mxCell>
        <mxCell id="Gbv1jejS2D5YbB3k_reu-76" value="" style="shape=tableRow;horizontal=0;startSize=0;swimlaneHead=0;swimlaneBody=0;top=0;left=0;bottom=0;right=0;collapsible=0;dropTarget=0;fillColor=none;points=[[0,0.5],[1,0.5]];portConstraint=eastwest;strokeColor=inherit;fontSize=16;" vertex="1" parent="Gbv1jejS2D5YbB3k_reu-72">
          <mxGeometry y="30" width="554" height="30" as="geometry" />
        </mxCell>
        <mxCell id="Gbv1jejS2D5YbB3k_reu-77" value="Author" style="shape=partialRectangle;html=1;whiteSpace=wrap;connectable=0;fillColor=none;top=0;left=0;bottom=0;right=0;overflow=hidden;strokeColor=inherit;fontSize=16;" vertex="1" parent="Gbv1jejS2D5YbB3k_reu-76">
          <mxGeometry width="123" height="30" as="geometry">
            <mxRectangle width="123" height="30" as="alternateBounds" />
          </mxGeometry>
        </mxCell>
        <mxCell id="Gbv1jejS2D5YbB3k_reu-78" value="Quentin CHAN-WAI-NAM" style="shape=partialRectangle;html=1;whiteSpace=wrap;connectable=0;fillColor=none;top=0;left=0;bottom=0;right=0;align=left;spacingLeft=6;overflow=hidden;strokeColor=inherit;fontSize=16;" vertex="1" parent="Gbv1jejS2D5YbB3k_reu-76">
          <mxGeometry x="123" width="431" height="30" as="geometry">
            <mxRectangle width="431" height="30" as="alternateBounds" />
          </mxGeometry>
        </mxCell>
        <mxCell id="Gbv1jejS2D5YbB3k_reu-79" value="" style="shape=tableRow;horizontal=0;startSize=0;swimlaneHead=0;swimlaneBody=0;top=0;left=0;bottom=0;right=0;collapsible=0;dropTarget=0;fillColor=none;points=[[0,0.5],[1,0.5]];portConstraint=eastwest;strokeColor=inherit;fontSize=16;" vertex="1" parent="Gbv1jejS2D5YbB3k_reu-72">
          <mxGeometry y="60" width="554" height="30" as="geometry" />
        </mxCell>
        <mxCell id="Gbv1jejS2D5YbB3k_reu-80" value="Date" style="shape=partialRectangle;html=1;whiteSpace=wrap;connectable=0;fillColor=none;top=0;left=0;bottom=0;right=0;overflow=hidden;strokeColor=inherit;fontSize=16;" vertex="1" parent="Gbv1jejS2D5YbB3k_reu-79">
          <mxGeometry width="123" height="30" as="geometry">
            <mxRectangle width="123" height="30" as="alternateBounds" />
          </mxGeometry>
        </mxCell>
        <mxCell id="Gbv1jejS2D5YbB3k_reu-81" value="&lt;div&gt;2023/05/29&lt;/div&gt;" style="shape=partialRectangle;html=1;whiteSpace=wrap;connectable=0;fillColor=none;top=0;left=0;bottom=0;right=0;align=left;spacingLeft=6;overflow=hidden;strokeColor=inherit;fontSize=16;" vertex="1" parent="Gbv1jejS2D5YbB3k_reu-79">
          <mxGeometry x="123" width="431" height="30" as="geometry">
            <mxRectangle width="431" height="30" as="alternateBounds" />
          </mxGeometry>
        </mxCell>
        <mxCell id="Gbv1jejS2D5YbB3k_reu-84" style="shape=tableRow;horizontal=0;startSize=0;swimlaneHead=0;swimlaneBody=0;top=0;left=0;bottom=0;right=0;collapsible=0;dropTarget=0;fillColor=none;points=[[0,0.5],[1,0.5]];portConstraint=eastwest;strokeColor=inherit;fontSize=16;" vertex="1" parent="Gbv1jejS2D5YbB3k_reu-72">
          <mxGeometry y="90" width="554" height="30" as="geometry" />
        </mxCell>
        <mxCell id="Gbv1jejS2D5YbB3k_reu-85" value="Version" style="shape=partialRectangle;html=1;whiteSpace=wrap;connectable=0;fillColor=none;top=0;left=0;bottom=0;right=0;overflow=hidden;strokeColor=inherit;fontSize=16;" vertex="1" parent="Gbv1jejS2D5YbB3k_reu-84">
          <mxGeometry width="123" height="30" as="geometry">
            <mxRectangle width="123" height="30" as="alternateBounds" />
          </mxGeometry>
        </mxCell>
        <mxCell id="Gbv1jejS2D5YbB3k_reu-86" value="1" style="shape=partialRectangle;html=1;whiteSpace=wrap;connectable=0;fillColor=none;top=0;left=0;bottom=0;right=0;align=left;spacingLeft=6;overflow=hidden;strokeColor=inherit;fontSize=16;" vertex="1" parent="Gbv1jejS2D5YbB3k_reu-84">
          <mxGeometry x="123" width="431" height="30" as="geometry">
            <mxRectangle width="431" height="30" as="alternateBounds" />
          </mxGeometry>
        </mxCell>
        <mxCell id="B5C-b2RMJzXAP-8WhJvn-0" value="SecondaryRobotAction" style="swimlane;fontStyle=1;align=center;verticalAlign=top;childLayout=stackLayout;horizontal=1;startSize=26;horizontalStack=0;resizeParent=1;resizeParentMax=0;resizeLast=0;collapsible=1;marginBottom=0;whiteSpace=wrap;html=1;" vertex="1" parent="WIyWlLk6GJQsqaUBKTNV-1">
          <mxGeometry x="-3120" y="210" width="300" height="270" as="geometry" />
        </mxCell>
        <mxCell id="B5C-b2RMJzXAP-8WhJvn-1" value="&lt;div&gt;+ start_position: RobotPosition&lt;/div&gt;" style="text;strokeColor=none;fillColor=none;align=left;verticalAlign=top;spacingLeft=4;spacingRight=4;overflow=hidden;rotatable=0;points=[[0,0.5],[1,0.5]];portConstraint=eastwest;whiteSpace=wrap;html=1;" vertex="1" parent="B5C-b2RMJzXAP-8WhJvn-0">
          <mxGeometry y="26" width="300" height="26" as="geometry" />
        </mxCell>
        <mxCell id="B5C-b2RMJzXAP-8WhJvn-10" value="+ end_position: RobotPosition" style="text;strokeColor=none;fillColor=none;align=left;verticalAlign=top;spacingLeft=4;spacingRight=4;overflow=hidden;rotatable=0;points=[[0,0.5],[1,0.5]];portConstraint=eastwest;whiteSpace=wrap;html=1;" vertex="1" parent="B5C-b2RMJzXAP-8WhJvn-0">
          <mxGeometry y="52" width="300" height="26" as="geometry" />
        </mxCell>
        <mxCell id="B5C-b2RMJzXAP-8WhJvn-9" value="+ obstacles_on_the_road: vector&amp;lt;Obstacle&amp;gt;" style="text;strokeColor=none;fillColor=none;align=left;verticalAlign=top;spacingLeft=4;spacingRight=4;overflow=hidden;rotatable=0;points=[[0,0.5],[1,0.5]];portConstraint=eastwest;whiteSpace=wrap;html=1;" vertex="1" parent="B5C-b2RMJzXAP-8WhJvn-0">
          <mxGeometry y="78" width="300" height="26" as="geometry" />
        </mxCell>
        <mxCell id="B5C-b2RMJzXAP-8WhJvn-8" value="+ obstacles_in_the_end: vector&amp;lt;Obstacle&amp;gt;" style="text;strokeColor=none;fillColor=none;align=left;verticalAlign=top;spacingLeft=4;spacingRight=4;overflow=hidden;rotatable=0;points=[[0,0.5],[1,0.5]];portConstraint=eastwest;whiteSpace=wrap;html=1;" vertex="1" parent="B5C-b2RMJzXAP-8WhJvn-0">
          <mxGeometry y="104" width="300" height="26" as="geometry" />
        </mxCell>
        <mxCell id="B5C-b2RMJzXAP-8WhJvn-7" value="+ activated: bool" style="text;strokeColor=none;fillColor=none;align=left;verticalAlign=top;spacingLeft=4;spacingRight=4;overflow=hidden;rotatable=0;points=[[0,0.5],[1,0.5]];portConstraint=eastwest;whiteSpace=wrap;html=1;" vertex="1" parent="B5C-b2RMJzXAP-8WhJvn-0">
          <mxGeometry y="130" width="300" height="26" as="geometry" />
        </mxCell>
        <mxCell id="B5C-b2RMJzXAP-8WhJvn-2" value="" style="line;strokeWidth=1;fillColor=none;align=left;verticalAlign=middle;spacingTop=-1;spacingLeft=3;spacingRight=3;rotatable=0;labelPosition=right;points=[];portConstraint=eastwest;strokeColor=inherit;" vertex="1" parent="B5C-b2RMJzXAP-8WhJvn-0">
          <mxGeometry y="156" width="300" height="8" as="geometry" />
        </mxCell>
        <mxCell id="B5C-b2RMJzXAP-8WhJvn-3" value="+ SecondaryRobotAction(Strategy)" style="text;strokeColor=none;fillColor=none;align=left;verticalAlign=top;spacingLeft=4;spacingRight=4;overflow=hidden;rotatable=0;points=[[0,0.5],[1,0.5]];portConstraint=eastwest;whiteSpace=wrap;html=1;" vertex="1" parent="B5C-b2RMJzXAP-8WhJvn-0">
          <mxGeometry y="164" width="300" height="26" as="geometry" />
        </mxCell>
        <mxCell id="B5C-b2RMJzXAP-8WhJvn-12" value="+ performAction(): bool" style="text;strokeColor=none;fillColor=none;align=left;verticalAlign=top;spacingLeft=4;spacingRight=4;overflow=hidden;rotatable=0;points=[[0,0.5],[1,0.5]];portConstraint=eastwest;whiteSpace=wrap;html=1;" vertex="1" parent="B5C-b2RMJzXAP-8WhJvn-0">
          <mxGeometry y="190" width="300" height="26" as="geometry" />
        </mxCell>
        <mxCell id="B5C-b2RMJzXAP-8WhJvn-11" value="+ getScore(): int" style="text;strokeColor=none;fillColor=none;align=left;verticalAlign=top;spacingLeft=4;spacingRight=4;overflow=hidden;rotatable=0;points=[[0,0.5],[1,0.5]];portConstraint=eastwest;whiteSpace=wrap;html=1;" vertex="1" parent="B5C-b2RMJzXAP-8WhJvn-0">
          <mxGeometry y="216" width="300" height="26" as="geometry" />
        </mxCell>
        <mxCell id="ne0JyadZq1jZcnPS88El-0" value="+ needRailTop(): bool" style="text;strokeColor=none;fillColor=none;align=left;verticalAlign=top;spacingLeft=4;spacingRight=4;overflow=hidden;rotatable=0;points=[[0,0.5],[1,0.5]];portConstraint=eastwest;whiteSpace=wrap;html=1;" vertex="1" parent="B5C-b2RMJzXAP-8WhJvn-0">
          <mxGeometry y="242" width="300" height="28" as="geometry" />
        </mxCell>
        <mxCell id="ne0JyadZq1jZcnPS88El-17" style="edgeStyle=orthogonalEdgeStyle;rounded=0;orthogonalLoop=1;jettySize=auto;html=1;exitX=0.5;exitY=0;exitDx=0;exitDy=0;entryX=0.5;entryY=1;entryDx=0;entryDy=0;" edge="1" parent="WIyWlLk6GJQsqaUBKTNV-1" source="ne0JyadZq1jZcnPS88El-5" target="B5C-b2RMJzXAP-8WhJvn-0">
          <mxGeometry relative="1" as="geometry" />
        </mxCell>
        <mxCell id="ne0JyadZq1jZcnPS88El-5" value="&lt;b&gt;CherryAction&lt;/b&gt;" style="swimlane;fontStyle=0;childLayout=stackLayout;horizontal=1;startSize=26;fillColor=none;horizontalStack=0;resizeParent=1;resizeParentMax=0;resizeLast=0;collapsible=1;marginBottom=0;whiteSpace=wrap;html=1;" vertex="1" parent="WIyWlLk6GJQsqaUBKTNV-1">
          <mxGeometry x="-3240" y="550" width="190" height="104" as="geometry" />
        </mxCell>
        <mxCell id="ne0JyadZq1jZcnPS88El-6" value="+ CherryAction(Strategy)" style="text;strokeColor=none;fillColor=none;align=left;verticalAlign=top;spacingLeft=4;spacingRight=4;overflow=hidden;rotatable=0;points=[[0,0.5],[1,0.5]];portConstraint=eastwest;whiteSpace=wrap;html=1;" vertex="1" parent="ne0JyadZq1jZcnPS88El-5">
          <mxGeometry y="26" width="190" height="26" as="geometry" />
        </mxCell>
        <mxCell id="ne0JyadZq1jZcnPS88El-7" value="+ performAction(): bool" style="text;strokeColor=none;fillColor=none;align=left;verticalAlign=top;spacingLeft=4;spacingRight=4;overflow=hidden;rotatable=0;points=[[0,0.5],[1,0.5]];portConstraint=eastwest;whiteSpace=wrap;html=1;" vertex="1" parent="ne0JyadZq1jZcnPS88El-5">
          <mxGeometry y="52" width="190" height="26" as="geometry" />
        </mxCell>
        <mxCell id="ne0JyadZq1jZcnPS88El-8" value="+ getScore(): int" style="text;strokeColor=none;fillColor=none;align=left;verticalAlign=top;spacingLeft=4;spacingRight=4;overflow=hidden;rotatable=0;points=[[0,0.5],[1,0.5]];portConstraint=eastwest;whiteSpace=wrap;html=1;" vertex="1" parent="ne0JyadZq1jZcnPS88El-5">
          <mxGeometry y="78" width="190" height="26" as="geometry" />
        </mxCell>
        <mxCell id="ne0JyadZq1jZcnPS88El-20" style="edgeStyle=orthogonalEdgeStyle;rounded=0;orthogonalLoop=1;jettySize=auto;html=1;exitX=0.5;exitY=0;exitDx=0;exitDy=0;" edge="1" parent="WIyWlLk6GJQsqaUBKTNV-1" source="ne0JyadZq1jZcnPS88El-9">
          <mxGeometry relative="1" as="geometry">
            <mxPoint x="-2970" y="480" as="targetPoint" />
            <Array as="points">
              <mxPoint x="-2915" y="515" />
              <mxPoint x="-2970" y="515" />
            </Array>
          </mxGeometry>
        </mxCell>
        <mxCell id="ne0JyadZq1jZcnPS88El-9" value="&lt;b&gt;PushingCakesAction&lt;/b&gt;" style="swimlane;fontStyle=0;childLayout=stackLayout;horizontal=1;startSize=26;fillColor=none;horizontalStack=0;resizeParent=1;resizeParentMax=0;resizeLast=0;collapsible=1;marginBottom=0;whiteSpace=wrap;html=1;" vertex="1" parent="WIyWlLk6GJQsqaUBKTNV-1">
          <mxGeometry x="-3010" y="550" width="190" height="110" as="geometry" />
        </mxCell>
        <mxCell id="ne0JyadZq1jZcnPS88El-10" value="+ PushingCakesAction(Strategy)" style="text;strokeColor=none;fillColor=none;align=left;verticalAlign=top;spacingLeft=4;spacingRight=4;overflow=hidden;rotatable=0;points=[[0,0.5],[1,0.5]];portConstraint=eastwest;whiteSpace=wrap;html=1;" vertex="1" parent="ne0JyadZq1jZcnPS88El-9">
          <mxGeometry y="26" width="190" height="26" as="geometry" />
        </mxCell>
        <mxCell id="ne0JyadZq1jZcnPS88El-11" value="+ performAction(): bool" style="text;strokeColor=none;fillColor=none;align=left;verticalAlign=top;spacingLeft=4;spacingRight=4;overflow=hidden;rotatable=0;points=[[0,0.5],[1,0.5]];portConstraint=eastwest;whiteSpace=wrap;html=1;" vertex="1" parent="ne0JyadZq1jZcnPS88El-9">
          <mxGeometry y="52" width="190" height="26" as="geometry" />
        </mxCell>
        <mxCell id="ne0JyadZq1jZcnPS88El-12" value="+ getScore(): int" style="text;strokeColor=none;fillColor=none;align=left;verticalAlign=top;spacingLeft=4;spacingRight=4;overflow=hidden;rotatable=0;points=[[0,0.5],[1,0.5]];portConstraint=eastwest;whiteSpace=wrap;html=1;" vertex="1" parent="ne0JyadZq1jZcnPS88El-9">
          <mxGeometry y="78" width="190" height="32" as="geometry" />
        </mxCell>
        <mxCell id="ne0JyadZq1jZcnPS88El-28" style="edgeStyle=orthogonalEdgeStyle;rounded=0;orthogonalLoop=1;jettySize=auto;html=1;exitX=1;exitY=0.5;exitDx=0;exitDy=0;entryX=0.5;entryY=1;entryDx=0;entryDy=0;" edge="1" parent="WIyWlLk6GJQsqaUBKTNV-1" source="ne0JyadZq1jZcnPS88El-23" target="ne0JyadZq1jZcnPS88El-5">
          <mxGeometry relative="1" as="geometry">
            <Array as="points">
              <mxPoint x="-3050" y="739" />
              <mxPoint x="-3050" y="680" />
              <mxPoint x="-3145" y="680" />
            </Array>
          </mxGeometry>
        </mxCell>
        <mxCell id="ne0JyadZq1jZcnPS88El-22" value="&lt;b&gt;GrabCherriesLeft&lt;/b&gt;" style="swimlane;fontStyle=0;childLayout=stackLayout;horizontal=1;startSize=26;fillColor=none;horizontalStack=0;resizeParent=1;resizeParentMax=0;resizeLast=0;collapsible=1;marginBottom=0;whiteSpace=wrap;html=1;" vertex="1" parent="WIyWlLk6GJQsqaUBKTNV-1">
          <mxGeometry x="-3270" y="700" width="190" height="52" as="geometry" />
        </mxCell>
        <mxCell id="ne0JyadZq1jZcnPS88El-23" value="+ GrabCherriesLeft(Strategy)" style="text;strokeColor=none;fillColor=none;align=left;verticalAlign=top;spacingLeft=4;spacingRight=4;overflow=hidden;rotatable=0;points=[[0,0.5],[1,0.5]];portConstraint=eastwest;whiteSpace=wrap;html=1;" vertex="1" parent="ne0JyadZq1jZcnPS88El-22">
          <mxGeometry y="26" width="190" height="26" as="geometry" />
        </mxCell>
        <mxCell id="ne0JyadZq1jZcnPS88El-30" style="edgeStyle=orthogonalEdgeStyle;rounded=0;orthogonalLoop=1;jettySize=auto;html=1;exitX=1;exitY=0.5;exitDx=0;exitDy=0;entryX=0.5;entryY=1;entryDx=0;entryDy=0;entryPerimeter=0;" edge="1" parent="WIyWlLk6GJQsqaUBKTNV-1" source="ne0JyadZq1jZcnPS88El-27" target="ne0JyadZq1jZcnPS88El-8">
          <mxGeometry relative="1" as="geometry">
            <Array as="points">
              <mxPoint x="-3050" y="819" />
              <mxPoint x="-3050" y="680" />
              <mxPoint x="-3145" y="680" />
            </Array>
          </mxGeometry>
        </mxCell>
        <mxCell id="ne0JyadZq1jZcnPS88El-26" value="&lt;b&gt;GrabCherriesRight&lt;/b&gt;" style="swimlane;fontStyle=0;childLayout=stackLayout;horizontal=1;startSize=26;fillColor=none;horizontalStack=0;resizeParent=1;resizeParentMax=0;resizeLast=0;collapsible=1;marginBottom=0;whiteSpace=wrap;html=1;" vertex="1" parent="WIyWlLk6GJQsqaUBKTNV-1">
          <mxGeometry x="-3270" y="780" width="190" height="52" as="geometry" />
        </mxCell>
        <mxCell id="ne0JyadZq1jZcnPS88El-27" value="+ GrabCherriesRight(Strategy)" style="text;strokeColor=none;fillColor=none;align=left;verticalAlign=top;spacingLeft=4;spacingRight=4;overflow=hidden;rotatable=0;points=[[0,0.5],[1,0.5]];portConstraint=eastwest;whiteSpace=wrap;html=1;" vertex="1" parent="ne0JyadZq1jZcnPS88El-26">
          <mxGeometry y="26" width="190" height="26" as="geometry" />
        </mxCell>
        <mxCell id="ne0JyadZq1jZcnPS88El-36" style="edgeStyle=orthogonalEdgeStyle;rounded=0;orthogonalLoop=1;jettySize=auto;html=1;exitX=0.5;exitY=0;exitDx=0;exitDy=0;entryX=0.5;entryY=1;entryDx=0;entryDy=0;" edge="1" parent="WIyWlLk6GJQsqaUBKTNV-1" source="ne0JyadZq1jZcnPS88El-31" target="B5C-b2RMJzXAP-8WhJvn-0">
          <mxGeometry relative="1" as="geometry" />
        </mxCell>
        <mxCell id="ne0JyadZq1jZcnPS88El-31" value="&lt;b&gt;PutCherriesInTheBasket&lt;/b&gt;" style="swimlane;fontStyle=0;childLayout=stackLayout;horizontal=1;startSize=26;fillColor=none;horizontalStack=0;resizeParent=1;resizeParentMax=0;resizeLast=0;collapsible=1;marginBottom=0;whiteSpace=wrap;html=1;" vertex="1" parent="WIyWlLk6GJQsqaUBKTNV-1">
          <mxGeometry x="-2780" y="550" width="210" height="130" as="geometry" />
        </mxCell>
        <mxCell id="ne0JyadZq1jZcnPS88El-32" value="+ PutCherriesInTheBasket(Strategy)" style="text;strokeColor=none;fillColor=none;align=left;verticalAlign=top;spacingLeft=4;spacingRight=4;overflow=hidden;rotatable=0;points=[[0,0.5],[1,0.5]];portConstraint=eastwest;whiteSpace=wrap;html=1;" vertex="1" parent="ne0JyadZq1jZcnPS88El-31">
          <mxGeometry y="26" width="210" height="26" as="geometry" />
        </mxCell>
        <mxCell id="ne0JyadZq1jZcnPS88El-33" value="+ performAction(): bool" style="text;strokeColor=none;fillColor=none;align=left;verticalAlign=top;spacingLeft=4;spacingRight=4;overflow=hidden;rotatable=0;points=[[0,0.5],[1,0.5]];portConstraint=eastwest;whiteSpace=wrap;html=1;" vertex="1" parent="ne0JyadZq1jZcnPS88El-31">
          <mxGeometry y="52" width="210" height="26" as="geometry" />
        </mxCell>
        <mxCell id="ne0JyadZq1jZcnPS88El-34" value="+ getScore(): int" style="text;strokeColor=none;fillColor=none;align=left;verticalAlign=top;spacingLeft=4;spacingRight=4;overflow=hidden;rotatable=0;points=[[0,0.5],[1,0.5]];portConstraint=eastwest;whiteSpace=wrap;html=1;" vertex="1" parent="ne0JyadZq1jZcnPS88El-31">
          <mxGeometry y="78" width="210" height="26" as="geometry" />
        </mxCell>
        <mxCell id="ne0JyadZq1jZcnPS88El-35" value="+ needRailTop(): bool" style="text;strokeColor=none;fillColor=none;align=left;verticalAlign=top;spacingLeft=4;spacingRight=4;overflow=hidden;rotatable=0;points=[[0,0.5],[1,0.5]];portConstraint=eastwest;whiteSpace=wrap;html=1;" vertex="1" parent="ne0JyadZq1jZcnPS88El-31">
          <mxGeometry y="104" width="210" height="26" as="geometry" />
        </mxCell>
        <mxCell id="ne0JyadZq1jZcnPS88El-51" style="edgeStyle=orthogonalEdgeStyle;rounded=0;orthogonalLoop=1;jettySize=auto;html=1;exitX=1;exitY=0.5;exitDx=0;exitDy=0;" edge="1" parent="WIyWlLk6GJQsqaUBKTNV-1" source="ne0JyadZq1jZcnPS88El-38">
          <mxGeometry relative="1" as="geometry">
            <mxPoint x="-2906" y="660" as="targetPoint" />
            <Array as="points">
              <mxPoint x="-2801" y="739" />
              <mxPoint x="-2801" y="680" />
              <mxPoint x="-2906" y="680" />
            </Array>
          </mxGeometry>
        </mxCell>
        <mxCell id="ne0JyadZq1jZcnPS88El-37" value="&lt;b&gt;PushCakes1to5&lt;/b&gt;" style="swimlane;fontStyle=0;childLayout=stackLayout;horizontal=1;startSize=26;fillColor=none;horizontalStack=0;resizeParent=1;resizeParentMax=0;resizeLast=0;collapsible=1;marginBottom=0;whiteSpace=wrap;html=1;" vertex="1" parent="WIyWlLk6GJQsqaUBKTNV-1">
          <mxGeometry x="-3020" y="700" width="190" height="52" as="geometry" />
        </mxCell>
        <mxCell id="ne0JyadZq1jZcnPS88El-38" value="+ PushCakes1to5(Strategy)" style="text;strokeColor=none;fillColor=none;align=left;verticalAlign=top;spacingLeft=4;spacingRight=4;overflow=hidden;rotatable=0;points=[[0,0.5],[1,0.5]];portConstraint=eastwest;whiteSpace=wrap;html=1;" vertex="1" parent="ne0JyadZq1jZcnPS88El-37">
          <mxGeometry y="26" width="190" height="26" as="geometry" />
        </mxCell>
        <mxCell id="ne0JyadZq1jZcnPS88El-39" value="&lt;b&gt;PushCakes7to5&lt;/b&gt;" style="swimlane;fontStyle=0;childLayout=stackLayout;horizontal=1;startSize=26;fillColor=none;horizontalStack=0;resizeParent=1;resizeParentMax=0;resizeLast=0;collapsible=1;marginBottom=0;whiteSpace=wrap;html=1;" vertex="1" parent="WIyWlLk6GJQsqaUBKTNV-1">
          <mxGeometry x="-3020" y="780" width="190" height="52" as="geometry" />
        </mxCell>
        <mxCell id="ne0JyadZq1jZcnPS88El-40" value="+ PushCakes7to5(Strategy)" style="text;strokeColor=none;fillColor=none;align=left;verticalAlign=top;spacingLeft=4;spacingRight=4;overflow=hidden;rotatable=0;points=[[0,0.5],[1,0.5]];portConstraint=eastwest;whiteSpace=wrap;html=1;" vertex="1" parent="ne0JyadZq1jZcnPS88El-39">
          <mxGeometry y="26" width="190" height="26" as="geometry" />
        </mxCell>
        <mxCell id="ne0JyadZq1jZcnPS88El-41" value="&lt;b&gt;PushCakes3to4&lt;/b&gt;" style="swimlane;fontStyle=0;childLayout=stackLayout;horizontal=1;startSize=26;fillColor=none;horizontalStack=0;resizeParent=1;resizeParentMax=0;resizeLast=0;collapsible=1;marginBottom=0;whiteSpace=wrap;html=1;" vertex="1" parent="WIyWlLk6GJQsqaUBKTNV-1">
          <mxGeometry x="-3020" y="860" width="190" height="52" as="geometry" />
        </mxCell>
        <mxCell id="ne0JyadZq1jZcnPS88El-42" value="+ PushCakes3to4(Strategy)" style="text;strokeColor=none;fillColor=none;align=left;verticalAlign=top;spacingLeft=4;spacingRight=4;overflow=hidden;rotatable=0;points=[[0,0.5],[1,0.5]];portConstraint=eastwest;whiteSpace=wrap;html=1;" vertex="1" parent="ne0JyadZq1jZcnPS88El-41">
          <mxGeometry y="26" width="190" height="26" as="geometry" />
        </mxCell>
        <mxCell id="ne0JyadZq1jZcnPS88El-43" value="&lt;b&gt;PushCakes6to4&lt;/b&gt;" style="swimlane;fontStyle=0;childLayout=stackLayout;horizontal=1;startSize=26;fillColor=none;horizontalStack=0;resizeParent=1;resizeParentMax=0;resizeLast=0;collapsible=1;marginBottom=0;whiteSpace=wrap;html=1;" vertex="1" parent="WIyWlLk6GJQsqaUBKTNV-1">
          <mxGeometry x="-2770" y="700" width="190" height="52" as="geometry" />
        </mxCell>
        <mxCell id="ne0JyadZq1jZcnPS88El-44" value="+ PushCakes6to4(Strategy)" style="text;strokeColor=none;fillColor=none;align=left;verticalAlign=top;spacingLeft=4;spacingRight=4;overflow=hidden;rotatable=0;points=[[0,0.5],[1,0.5]];portConstraint=eastwest;whiteSpace=wrap;html=1;" vertex="1" parent="ne0JyadZq1jZcnPS88El-43">
          <mxGeometry y="26" width="190" height="26" as="geometry" />
        </mxCell>
        <mxCell id="ne0JyadZq1jZcnPS88El-45" value="&lt;b&gt;PushCakes3to1&lt;/b&gt;" style="swimlane;fontStyle=0;childLayout=stackLayout;horizontal=1;startSize=26;fillColor=none;horizontalStack=0;resizeParent=1;resizeParentMax=0;resizeLast=0;collapsible=1;marginBottom=0;whiteSpace=wrap;html=1;" vertex="1" parent="WIyWlLk6GJQsqaUBKTNV-1">
          <mxGeometry x="-2770" y="780" width="190" height="52" as="geometry" />
        </mxCell>
        <mxCell id="ne0JyadZq1jZcnPS88El-46" value="+ PushCakes3to1(Strategy)" style="text;strokeColor=none;fillColor=none;align=left;verticalAlign=top;spacingLeft=4;spacingRight=4;overflow=hidden;rotatable=0;points=[[0,0.5],[1,0.5]];portConstraint=eastwest;whiteSpace=wrap;html=1;" vertex="1" parent="ne0JyadZq1jZcnPS88El-45">
          <mxGeometry y="26" width="190" height="26" as="geometry" />
        </mxCell>
        <mxCell id="ne0JyadZq1jZcnPS88El-47" value="&lt;b&gt;PushCakes6to5&lt;/b&gt;" style="swimlane;fontStyle=0;childLayout=stackLayout;horizontal=1;startSize=26;fillColor=none;horizontalStack=0;resizeParent=1;resizeParentMax=0;resizeLast=0;collapsible=1;marginBottom=0;whiteSpace=wrap;html=1;" vertex="1" parent="WIyWlLk6GJQsqaUBKTNV-1">
          <mxGeometry x="-2770" y="860" width="190" height="52" as="geometry" />
        </mxCell>
        <mxCell id="ne0JyadZq1jZcnPS88El-48" value="+ PushCakes6to5(Strategy)" style="text;strokeColor=none;fillColor=none;align=left;verticalAlign=top;spacingLeft=4;spacingRight=4;overflow=hidden;rotatable=0;points=[[0,0.5],[1,0.5]];portConstraint=eastwest;whiteSpace=wrap;html=1;" vertex="1" parent="ne0JyadZq1jZcnPS88El-47">
          <mxGeometry y="26" width="190" height="26" as="geometry" />
        </mxCell>
        <mxCell id="ne0JyadZq1jZcnPS88El-52" style="edgeStyle=orthogonalEdgeStyle;rounded=0;orthogonalLoop=1;jettySize=auto;html=1;exitX=0;exitY=0.5;exitDx=0;exitDy=0;" edge="1" parent="WIyWlLk6GJQsqaUBKTNV-1" source="ne0JyadZq1jZcnPS88El-44">
          <mxGeometry relative="1" as="geometry">
            <mxPoint x="-2906" y="660" as="targetPoint" />
            <Array as="points">
              <mxPoint x="-2801" y="739" />
              <mxPoint x="-2801" y="680" />
              <mxPoint x="-2906" y="680" />
            </Array>
          </mxGeometry>
        </mxCell>
        <mxCell id="ne0JyadZq1jZcnPS88El-56" style="edgeStyle=orthogonalEdgeStyle;rounded=0;orthogonalLoop=1;jettySize=auto;html=1;exitX=0;exitY=0.5;exitDx=0;exitDy=0;endArrow=none;endFill=0;" edge="1" parent="WIyWlLk6GJQsqaUBKTNV-1" source="ne0JyadZq1jZcnPS88El-48">
          <mxGeometry relative="1" as="geometry">
            <mxPoint x="-2906" y="660" as="targetPoint" />
            <Array as="points">
              <mxPoint x="-2801" y="899" />
              <mxPoint x="-2801" y="680" />
              <mxPoint x="-2906" y="680" />
            </Array>
          </mxGeometry>
        </mxCell>
        <mxCell id="ne0JyadZq1jZcnPS88El-54" style="edgeStyle=orthogonalEdgeStyle;rounded=0;orthogonalLoop=1;jettySize=auto;html=1;exitX=0;exitY=0.5;exitDx=0;exitDy=0;endArrow=none;endFill=0;" edge="1" parent="WIyWlLk6GJQsqaUBKTNV-1" source="ne0JyadZq1jZcnPS88El-46">
          <mxGeometry relative="1" as="geometry">
            <mxPoint x="-2906" y="660" as="targetPoint" />
            <Array as="points">
              <mxPoint x="-2801" y="819" />
              <mxPoint x="-2801" y="680" />
              <mxPoint x="-2906" y="680" />
            </Array>
          </mxGeometry>
        </mxCell>
        <mxCell id="ne0JyadZq1jZcnPS88El-53" style="edgeStyle=orthogonalEdgeStyle;rounded=0;orthogonalLoop=1;jettySize=auto;html=1;exitX=1;exitY=0.5;exitDx=0;exitDy=0;endArrow=none;endFill=0;" edge="1" parent="WIyWlLk6GJQsqaUBKTNV-1" source="ne0JyadZq1jZcnPS88El-40">
          <mxGeometry relative="1" as="geometry">
            <mxPoint x="-2906" y="660" as="targetPoint" />
            <Array as="points">
              <mxPoint x="-2801" y="819" />
              <mxPoint x="-2801" y="680" />
              <mxPoint x="-2906" y="680" />
            </Array>
          </mxGeometry>
        </mxCell>
        <mxCell id="ne0JyadZq1jZcnPS88El-55" style="edgeStyle=orthogonalEdgeStyle;rounded=0;orthogonalLoop=1;jettySize=auto;html=1;exitX=1;exitY=0.5;exitDx=0;exitDy=0;endArrow=none;endFill=0;" edge="1" parent="WIyWlLk6GJQsqaUBKTNV-1" source="ne0JyadZq1jZcnPS88El-42" target="ne0JyadZq1jZcnPS88El-9">
          <mxGeometry relative="1" as="geometry">
            <mxPoint x="-2906" y="660" as="targetPoint" />
            <Array as="points">
              <mxPoint x="-2801" y="899" />
              <mxPoint x="-2801" y="680" />
              <mxPoint x="-2906" y="680" />
            </Array>
          </mxGeometry>
        </mxCell>
        <mxCell id="ne0JyadZq1jZcnPS88El-136" style="edgeStyle=orthogonalEdgeStyle;rounded=0;orthogonalLoop=1;jettySize=auto;html=1;exitX=1;exitY=0.5;exitDx=0;exitDy=0;entryX=0;entryY=0.25;entryDx=0;entryDy=0;" edge="1" parent="WIyWlLk6GJQsqaUBKTNV-1" source="ne0JyadZq1jZcnPS88El-60" target="ne0JyadZq1jZcnPS88El-64">
          <mxGeometry relative="1" as="geometry" />
        </mxCell>
        <mxCell id="ne0JyadZq1jZcnPS88El-60" value="START" style="rhombus;whiteSpace=wrap;html=1;strokeWidth=2;" vertex="1" parent="WIyWlLk6GJQsqaUBKTNV-1">
          <mxGeometry x="-2405" y="99" width="90" height="80" as="geometry" />
        </mxCell>
        <mxCell id="ne0JyadZq1jZcnPS88El-80" style="edgeStyle=orthogonalEdgeStyle;rounded=0;orthogonalLoop=1;jettySize=auto;html=1;entryX=0.5;entryY=0;entryDx=0;entryDy=0;" edge="1" parent="WIyWlLk6GJQsqaUBKTNV-1" source="ne0JyadZq1jZcnPS88El-61" target="ne0JyadZq1jZcnPS88El-65">
          <mxGeometry relative="1" as="geometry" />
        </mxCell>
        <mxCell id="ne0JyadZq1jZcnPS88El-61" value="Compute minimum distance from start point to obstacle" style="rounded=0;whiteSpace=wrap;html=1;" vertex="1" parent="WIyWlLk6GJQsqaUBKTNV-1">
          <mxGeometry x="-1965" y="170" width="120" height="60" as="geometry" />
        </mxCell>
        <mxCell id="ne0JyadZq1jZcnPS88El-79" style="edgeStyle=orthogonalEdgeStyle;rounded=0;orthogonalLoop=1;jettySize=auto;html=1;entryX=0.5;entryY=0;entryDx=0;entryDy=0;" edge="1" parent="WIyWlLk6GJQsqaUBKTNV-1" source="ne0JyadZq1jZcnPS88El-62" target="ne0JyadZq1jZcnPS88El-65">
          <mxGeometry relative="1" as="geometry" />
        </mxCell>
        <mxCell id="ne0JyadZq1jZcnPS88El-62" value="Compute minimum distance from end point to obstacle" style="rounded=0;whiteSpace=wrap;html=1;" vertex="1" parent="WIyWlLk6GJQsqaUBKTNV-1">
          <mxGeometry x="-2165" y="170" width="120" height="60" as="geometry" />
        </mxCell>
        <mxCell id="ne0JyadZq1jZcnPS88El-63" value="Compute distance from robot to start point" style="rounded=0;whiteSpace=wrap;html=1;" vertex="1" parent="WIyWlLk6GJQsqaUBKTNV-1">
          <mxGeometry x="-2065" y="390" width="120" height="60" as="geometry" />
        </mxCell>
        <mxCell id="ne0JyadZq1jZcnPS88El-68" value="Yes" style="edgeStyle=orthogonalEdgeStyle;rounded=0;orthogonalLoop=1;jettySize=auto;html=1;exitX=1;exitY=0.5;exitDx=0;exitDy=0;entryX=0.5;entryY=1;entryDx=0;entryDy=0;" edge="1" parent="WIyWlLk6GJQsqaUBKTNV-1" source="ne0JyadZq1jZcnPS88El-65" target="ne0JyadZq1jZcnPS88El-70">
          <mxGeometry relative="1" as="geometry" />
        </mxCell>
        <mxCell id="ne0JyadZq1jZcnPS88El-81" value="No" style="edgeStyle=orthogonalEdgeStyle;rounded=0;orthogonalLoop=1;jettySize=auto;html=1;exitX=0.5;exitY=1;exitDx=0;exitDy=0;entryX=0.5;entryY=0;entryDx=0;entryDy=0;" edge="1" parent="WIyWlLk6GJQsqaUBKTNV-1" source="ne0JyadZq1jZcnPS88El-65" target="ne0JyadZq1jZcnPS88El-63">
          <mxGeometry relative="1" as="geometry" />
        </mxCell>
        <mxCell id="ne0JyadZq1jZcnPS88El-65" value="Any &amp;gt; 20?" style="rhombus;whiteSpace=wrap;html=1;strokeWidth=2;" vertex="1" parent="WIyWlLk6GJQsqaUBKTNV-1">
          <mxGeometry x="-2045" y="270" width="80" height="80" as="geometry" />
        </mxCell>
        <mxCell id="ne0JyadZq1jZcnPS88El-70" value="Action skipped" style="text;html=1;strokeColor=none;fillColor=none;align=center;verticalAlign=middle;whiteSpace=wrap;rounded=0;" vertex="1" parent="WIyWlLk6GJQsqaUBKTNV-1">
          <mxGeometry x="-1795" y="170" width="60" height="30" as="geometry" />
        </mxCell>
        <mxCell id="ne0JyadZq1jZcnPS88El-76" style="edgeStyle=orthogonalEdgeStyle;rounded=0;orthogonalLoop=1;jettySize=auto;html=1;exitX=0.5;exitY=1;exitDx=0;exitDy=0;entryX=0.5;entryY=0;entryDx=0;entryDy=0;" edge="1" parent="WIyWlLk6GJQsqaUBKTNV-1" source="ne0JyadZq1jZcnPS88El-75" target="ne0JyadZq1jZcnPS88El-62">
          <mxGeometry relative="1" as="geometry" />
        </mxCell>
        <mxCell id="ne0JyadZq1jZcnPS88El-77" value="Yes" style="edgeStyle=orthogonalEdgeStyle;rounded=0;orthogonalLoop=1;jettySize=auto;html=1;" edge="1" parent="WIyWlLk6GJQsqaUBKTNV-1" source="ne0JyadZq1jZcnPS88El-75" target="ne0JyadZq1jZcnPS88El-61">
          <mxGeometry x="-0.8571" relative="1" as="geometry">
            <mxPoint as="offset" />
          </mxGeometry>
        </mxCell>
        <mxCell id="ne0JyadZq1jZcnPS88El-78" value="No" style="edgeStyle=orthogonalEdgeStyle;rounded=0;orthogonalLoop=1;jettySize=auto;html=1;exitX=1;exitY=0.5;exitDx=0;exitDy=0;entryX=0.5;entryY=0;entryDx=0;entryDy=0;" edge="1" parent="WIyWlLk6GJQsqaUBKTNV-1" source="ne0JyadZq1jZcnPS88El-75" target="ne0JyadZq1jZcnPS88El-70">
          <mxGeometry relative="1" as="geometry" />
        </mxCell>
        <mxCell id="ne0JyadZq1jZcnPS88El-75" value="Action is activated?" style="rhombus;whiteSpace=wrap;html=1;strokeWidth=2;" vertex="1" parent="WIyWlLk6GJQsqaUBKTNV-1">
          <mxGeometry x="-2045" y="40" width="80" height="80" as="geometry" />
        </mxCell>
        <mxCell id="ne0JyadZq1jZcnPS88El-84" value="No" style="edgeStyle=orthogonalEdgeStyle;rounded=0;orthogonalLoop=1;jettySize=auto;html=1;exitX=0;exitY=0.5;exitDx=0;exitDy=0;entryX=1;entryY=0.5;entryDx=0;entryDy=0;" edge="1" parent="WIyWlLk6GJQsqaUBKTNV-1" source="ne0JyadZq1jZcnPS88El-82" target="ne0JyadZq1jZcnPS88El-83">
          <mxGeometry relative="1" as="geometry" />
        </mxCell>
        <mxCell id="ne0JyadZq1jZcnPS88El-88" value="Yes" style="edgeStyle=orthogonalEdgeStyle;rounded=0;orthogonalLoop=1;jettySize=auto;html=1;exitX=1;exitY=0.5;exitDx=0;exitDy=0;entryX=0;entryY=0.5;entryDx=0;entryDy=0;" edge="1" parent="WIyWlLk6GJQsqaUBKTNV-1" source="ne0JyadZq1jZcnPS88El-82" target="ne0JyadZq1jZcnPS88El-90">
          <mxGeometry relative="1" as="geometry" />
        </mxCell>
        <mxCell id="ne0JyadZq1jZcnPS88El-82" value="Any action available ?" style="rhombus;whiteSpace=wrap;html=1;strokeWidth=2;" vertex="1" parent="WIyWlLk6GJQsqaUBKTNV-1">
          <mxGeometry x="-2015" y="490" width="90" height="80" as="geometry" />
        </mxCell>
        <mxCell id="ne0JyadZq1jZcnPS88El-85" style="edgeStyle=orthogonalEdgeStyle;rounded=0;orthogonalLoop=1;jettySize=auto;html=1;entryX=0.5;entryY=1;entryDx=0;entryDy=0;" edge="1" parent="WIyWlLk6GJQsqaUBKTNV-1" source="ne0JyadZq1jZcnPS88El-83" target="ne0JyadZq1jZcnPS88El-89">
          <mxGeometry relative="1" as="geometry" />
        </mxCell>
        <mxCell id="ne0JyadZq1jZcnPS88El-83" value="Reactivate all actions" style="rounded=0;whiteSpace=wrap;html=1;" vertex="1" parent="WIyWlLk6GJQsqaUBKTNV-1">
          <mxGeometry x="-2420" y="500" width="120" height="60" as="geometry" />
        </mxCell>
        <mxCell id="ne0JyadZq1jZcnPS88El-105" style="edgeStyle=orthogonalEdgeStyle;rounded=0;orthogonalLoop=1;jettySize=auto;html=1;exitX=0;exitY=0.5;exitDx=0;exitDy=0;entryX=1;entryY=0.5;entryDx=0;entryDy=0;" edge="1" parent="WIyWlLk6GJQsqaUBKTNV-1" source="ne0JyadZq1jZcnPS88El-87" target="ne0JyadZq1jZcnPS88El-104">
          <mxGeometry relative="1" as="geometry" />
        </mxCell>
        <mxCell id="ne0JyadZq1jZcnPS88El-87" value="Choose action with the min distance from robot to start point" style="rounded=0;whiteSpace=wrap;html=1;" vertex="1" parent="WIyWlLk6GJQsqaUBKTNV-1">
          <mxGeometry x="-1830" y="600" width="120" height="60" as="geometry" />
        </mxCell>
        <mxCell id="ne0JyadZq1jZcnPS88El-93" style="edgeStyle=orthogonalEdgeStyle;rounded=0;orthogonalLoop=1;jettySize=auto;html=1;exitX=0.5;exitY=0;exitDx=0;exitDy=0;entryX=0.5;entryY=1;entryDx=0;entryDy=0;" edge="1" parent="WIyWlLk6GJQsqaUBKTNV-1" source="ne0JyadZq1jZcnPS88El-89" target="ne0JyadZq1jZcnPS88El-92">
          <mxGeometry relative="1" as="geometry" />
        </mxCell>
        <mxCell id="ne0JyadZq1jZcnPS88El-89" value="number_of_unsuccessful_iters++" style="shape=hexagon;perimeter=hexagonPerimeter2;whiteSpace=wrap;html=1;fixedSize=1;" vertex="1" parent="WIyWlLk6GJQsqaUBKTNV-1">
          <mxGeometry x="-2460" y="450" width="200" height="30" as="geometry" />
        </mxCell>
        <mxCell id="ne0JyadZq1jZcnPS88El-91" style="edgeStyle=orthogonalEdgeStyle;rounded=0;orthogonalLoop=1;jettySize=auto;html=1;exitX=0.5;exitY=1;exitDx=0;exitDy=0;entryX=0.5;entryY=0;entryDx=0;entryDy=0;" edge="1" parent="WIyWlLk6GJQsqaUBKTNV-1" source="ne0JyadZq1jZcnPS88El-90" target="ne0JyadZq1jZcnPS88El-87">
          <mxGeometry relative="1" as="geometry">
            <mxPoint x="-1770" y="620" as="targetPoint" />
          </mxGeometry>
        </mxCell>
        <mxCell id="ne0JyadZq1jZcnPS88El-90" value="number_of_unsuccessful_iters = 0" style="shape=hexagon;perimeter=hexagonPerimeter2;whiteSpace=wrap;html=1;fixedSize=1;" vertex="1" parent="WIyWlLk6GJQsqaUBKTNV-1">
          <mxGeometry x="-1870" y="515" width="200" height="30" as="geometry" />
        </mxCell>
        <mxCell id="ne0JyadZq1jZcnPS88El-95" value="No" style="edgeStyle=orthogonalEdgeStyle;rounded=0;orthogonalLoop=1;jettySize=auto;html=1;entryX=0.5;entryY=1;entryDx=0;entryDy=0;" edge="1" parent="WIyWlLk6GJQsqaUBKTNV-1" source="ne0JyadZq1jZcnPS88El-92" target="ne0JyadZq1jZcnPS88El-60">
          <mxGeometry relative="1" as="geometry">
            <Array as="points">
              <mxPoint x="-2450" y="380" />
              <mxPoint x="-2450" y="210" />
              <mxPoint x="-2360" y="210" />
            </Array>
          </mxGeometry>
        </mxCell>
        <mxCell id="ne0JyadZq1jZcnPS88El-97" style="edgeStyle=orthogonalEdgeStyle;rounded=0;orthogonalLoop=1;jettySize=auto;html=1;exitX=0.5;exitY=0;exitDx=0;exitDy=0;entryX=0.5;entryY=1;entryDx=0;entryDy=0;" edge="1" parent="WIyWlLk6GJQsqaUBKTNV-1" source="ne0JyadZq1jZcnPS88El-92" target="ne0JyadZq1jZcnPS88El-96">
          <mxGeometry relative="1" as="geometry" />
        </mxCell>
        <mxCell id="ne0JyadZq1jZcnPS88El-92" value="Number &amp;gt; 10 ?" style="rhombus;whiteSpace=wrap;html=1;strokeWidth=2;" vertex="1" parent="WIyWlLk6GJQsqaUBKTNV-1">
          <mxGeometry x="-2405" y="340" width="90" height="80" as="geometry" />
        </mxCell>
        <mxCell id="ne0JyadZq1jZcnPS88El-96" value="Go to the middle of the table" style="rounded=0;whiteSpace=wrap;html=1;" vertex="1" parent="WIyWlLk6GJQsqaUBKTNV-1">
          <mxGeometry x="-2420" y="240" width="120" height="60" as="geometry" />
        </mxCell>
        <mxCell id="ne0JyadZq1jZcnPS88El-103" value="Fail" style="edgeStyle=orthogonalEdgeStyle;rounded=0;orthogonalLoop=1;jettySize=auto;html=1;exitX=0;exitY=0.5;exitDx=0;exitDy=0;entryX=1;entryY=0.25;entryDx=0;entryDy=0;" edge="1" parent="WIyWlLk6GJQsqaUBKTNV-1" source="ne0JyadZq1jZcnPS88El-99" target="ne0JyadZq1jZcnPS88El-100">
          <mxGeometry x="-0.4545" relative="1" as="geometry">
            <mxPoint x="-2300" y="640" as="targetPoint" />
            <Array as="points">
              <mxPoint x="-2280" y="630" />
              <mxPoint x="-2280" y="735" />
            </Array>
            <mxPoint as="offset" />
          </mxGeometry>
        </mxCell>
        <mxCell id="ne0JyadZq1jZcnPS88El-108" value="Success" style="edgeStyle=orthogonalEdgeStyle;rounded=0;orthogonalLoop=1;jettySize=auto;html=1;exitX=0.5;exitY=1;exitDx=0;exitDy=0;entryX=0.5;entryY=0;entryDx=0;entryDy=0;" edge="1" parent="WIyWlLk6GJQsqaUBKTNV-1" source="ne0JyadZq1jZcnPS88El-99" target="ne0JyadZq1jZcnPS88El-107">
          <mxGeometry relative="1" as="geometry">
            <Array as="points">
              <mxPoint x="-2155" y="690" />
              <mxPoint x="-1770" y="690" />
            </Array>
          </mxGeometry>
        </mxCell>
        <mxCell id="ne0JyadZq1jZcnPS88El-99" value="Plan path to start point" style="rhombus;whiteSpace=wrap;html=1;strokeWidth=2;" vertex="1" parent="WIyWlLk6GJQsqaUBKTNV-1">
          <mxGeometry x="-2200" y="590" width="90" height="80" as="geometry" />
        </mxCell>
        <mxCell id="ne0JyadZq1jZcnPS88El-102" style="edgeStyle=orthogonalEdgeStyle;rounded=0;orthogonalLoop=1;jettySize=auto;html=1;exitX=0;exitY=0.5;exitDx=0;exitDy=0;entryX=0;entryY=0.5;entryDx=0;entryDy=0;" edge="1" parent="WIyWlLk6GJQsqaUBKTNV-1" source="ne0JyadZq1jZcnPS88El-100" target="ne0JyadZq1jZcnPS88El-60">
          <mxGeometry relative="1" as="geometry">
            <Array as="points">
              <mxPoint x="-2480" y="740" />
              <mxPoint x="-2480" y="140" />
            </Array>
          </mxGeometry>
        </mxCell>
        <mxCell id="ne0JyadZq1jZcnPS88El-100" value="Deactivate action" style="rounded=0;whiteSpace=wrap;html=1;" vertex="1" parent="WIyWlLk6GJQsqaUBKTNV-1">
          <mxGeometry x="-2430" y="720" width="120" height="60" as="geometry" />
        </mxCell>
        <mxCell id="ne0JyadZq1jZcnPS88El-128" style="edgeStyle=orthogonalEdgeStyle;rounded=0;orthogonalLoop=1;jettySize=auto;html=1;exitX=0;exitY=0.5;exitDx=0;exitDy=0;entryX=0;entryY=0;entryDx=0;entryDy=0;" edge="1" parent="WIyWlLk6GJQsqaUBKTNV-1" source="ne0JyadZq1jZcnPS88El-101" target="ne0JyadZq1jZcnPS88El-60">
          <mxGeometry relative="1" as="geometry">
            <Array as="points">
              <mxPoint x="-2500" y="870" />
              <mxPoint x="-2500" y="120" />
            </Array>
          </mxGeometry>
        </mxCell>
        <mxCell id="ne0JyadZq1jZcnPS88El-101" value="Remove action from vector" style="rounded=0;whiteSpace=wrap;html=1;" vertex="1" parent="WIyWlLk6GJQsqaUBKTNV-1">
          <mxGeometry x="-2450" y="830" width="120" height="60" as="geometry" />
        </mxCell>
        <mxCell id="ne0JyadZq1jZcnPS88El-106" style="edgeStyle=orthogonalEdgeStyle;rounded=0;orthogonalLoop=1;jettySize=auto;html=1;exitX=0;exitY=0.5;exitDx=0;exitDy=0;entryX=1;entryY=0.5;entryDx=0;entryDy=0;" edge="1" parent="WIyWlLk6GJQsqaUBKTNV-1" source="ne0JyadZq1jZcnPS88El-104" target="ne0JyadZq1jZcnPS88El-99">
          <mxGeometry relative="1" as="geometry" />
        </mxCell>
        <mxCell id="ne0JyadZq1jZcnPS88El-104" value="Add &quot;obstacles on the road&quot; to path planning" style="rounded=0;whiteSpace=wrap;html=1;" vertex="1" parent="WIyWlLk6GJQsqaUBKTNV-1">
          <mxGeometry x="-2030" y="600" width="120" height="60" as="geometry" />
        </mxCell>
        <mxCell id="ne0JyadZq1jZcnPS88El-110" style="edgeStyle=orthogonalEdgeStyle;rounded=0;orthogonalLoop=1;jettySize=auto;html=1;exitX=0;exitY=0.5;exitDx=0;exitDy=0;entryX=1;entryY=0.5;entryDx=0;entryDy=0;" edge="1" parent="WIyWlLk6GJQsqaUBKTNV-1" source="ne0JyadZq1jZcnPS88El-107" target="ne0JyadZq1jZcnPS88El-113">
          <mxGeometry relative="1" as="geometry" />
        </mxCell>
        <mxCell id="ne0JyadZq1jZcnPS88El-114" value="" style="edgeStyle=orthogonalEdgeStyle;rounded=0;orthogonalLoop=1;jettySize=auto;html=1;" edge="1" parent="WIyWlLk6GJQsqaUBKTNV-1" source="ne0JyadZq1jZcnPS88El-107" target="ne0JyadZq1jZcnPS88El-113">
          <mxGeometry relative="1" as="geometry" />
        </mxCell>
        <mxCell id="ne0JyadZq1jZcnPS88El-107" value="Start moving rail to top if required by the action" style="rounded=0;whiteSpace=wrap;html=1;" vertex="1" parent="WIyWlLk6GJQsqaUBKTNV-1">
          <mxGeometry x="-1830" y="720" width="120" height="60" as="geometry" />
        </mxCell>
        <mxCell id="ne0JyadZq1jZcnPS88El-111" value="Fail" style="edgeStyle=orthogonalEdgeStyle;rounded=0;orthogonalLoop=1;jettySize=auto;html=1;exitX=0;exitY=0.5;exitDx=0;exitDy=0;entryX=1;entryY=0.5;entryDx=0;entryDy=0;" edge="1" parent="WIyWlLk6GJQsqaUBKTNV-1" source="ne0JyadZq1jZcnPS88El-109" target="ne0JyadZq1jZcnPS88El-100">
          <mxGeometry x="-0.0588" relative="1" as="geometry">
            <Array as="points">
              <mxPoint x="-2290" y="750" />
              <mxPoint x="-2290" y="750" />
            </Array>
            <mxPoint as="offset" />
          </mxGeometry>
        </mxCell>
        <mxCell id="ne0JyadZq1jZcnPS88El-134" value="Success" style="edgeStyle=orthogonalEdgeStyle;rounded=0;orthogonalLoop=1;jettySize=auto;html=1;exitX=0.5;exitY=1;exitDx=0;exitDy=0;entryX=0.5;entryY=0;entryDx=0;entryDy=0;" edge="1" parent="WIyWlLk6GJQsqaUBKTNV-1" source="ne0JyadZq1jZcnPS88El-109" target="ne0JyadZq1jZcnPS88El-112">
          <mxGeometry relative="1" as="geometry" />
        </mxCell>
        <mxCell id="ne0JyadZq1jZcnPS88El-109" value="&lt;div&gt;Go to start &lt;br&gt;&lt;/div&gt;&lt;div&gt;point&lt;/div&gt;" style="rhombus;whiteSpace=wrap;html=1;strokeWidth=2;" vertex="1" parent="WIyWlLk6GJQsqaUBKTNV-1">
          <mxGeometry x="-2200" y="710" width="90" height="80" as="geometry" />
        </mxCell>
        <mxCell id="ne0JyadZq1jZcnPS88El-124" value="Fail" style="edgeStyle=orthogonalEdgeStyle;rounded=0;orthogonalLoop=1;jettySize=auto;html=1;exitX=0;exitY=0.5;exitDx=0;exitDy=0;entryX=1;entryY=0.75;entryDx=0;entryDy=0;" edge="1" parent="WIyWlLk6GJQsqaUBKTNV-1" source="ne0JyadZq1jZcnPS88El-112" target="ne0JyadZq1jZcnPS88El-100">
          <mxGeometry x="-0.3913" relative="1" as="geometry">
            <Array as="points">
              <mxPoint x="-2280" y="870" />
              <mxPoint x="-2280" y="765" />
            </Array>
            <mxPoint as="offset" />
          </mxGeometry>
        </mxCell>
        <mxCell id="ne0JyadZq1jZcnPS88El-132" style="edgeStyle=orthogonalEdgeStyle;rounded=0;orthogonalLoop=1;jettySize=auto;html=1;exitX=1;exitY=0.5;exitDx=0;exitDy=0;entryX=0;entryY=0.5;entryDx=0;entryDy=0;" edge="1" parent="WIyWlLk6GJQsqaUBKTNV-1" source="ne0JyadZq1jZcnPS88El-112" target="ne0JyadZq1jZcnPS88El-119">
          <mxGeometry relative="1" as="geometry" />
        </mxCell>
        <mxCell id="ne0JyadZq1jZcnPS88El-112" value="&lt;div&gt;Perform &lt;br&gt;&lt;/div&gt;&lt;div&gt;action&lt;/div&gt;" style="rhombus;whiteSpace=wrap;html=1;strokeWidth=2;" vertex="1" parent="WIyWlLk6GJQsqaUBKTNV-1">
          <mxGeometry x="-2200" y="830" width="90" height="80" as="geometry" />
        </mxCell>
        <mxCell id="ne0JyadZq1jZcnPS88El-133" style="edgeStyle=orthogonalEdgeStyle;rounded=0;orthogonalLoop=1;jettySize=auto;html=1;exitX=1;exitY=0.5;exitDx=0;exitDy=0;entryX=0;entryY=0.5;entryDx=0;entryDy=0;" edge="1" parent="WIyWlLk6GJQsqaUBKTNV-1" source="ne0JyadZq1jZcnPS88El-119" target="ne0JyadZq1jZcnPS88El-120">
          <mxGeometry relative="1" as="geometry" />
        </mxCell>
        <mxCell id="ne0JyadZq1jZcnPS88El-119" value="Update score" style="rounded=0;whiteSpace=wrap;html=1;" vertex="1" parent="WIyWlLk6GJQsqaUBKTNV-1">
          <mxGeometry x="-2030" y="840" width="120" height="60" as="geometry" />
        </mxCell>
        <mxCell id="ne0JyadZq1jZcnPS88El-135" style="edgeStyle=orthogonalEdgeStyle;rounded=0;orthogonalLoop=1;jettySize=auto;html=1;entryX=0.5;entryY=1;entryDx=0;entryDy=0;" edge="1" parent="WIyWlLk6GJQsqaUBKTNV-1" source="ne0JyadZq1jZcnPS88El-120" target="ne0JyadZq1jZcnPS88El-101">
          <mxGeometry relative="1" as="geometry">
            <Array as="points">
              <mxPoint x="-1690" y="870" />
              <mxPoint x="-1690" y="930" />
              <mxPoint x="-2390" y="930" />
            </Array>
          </mxGeometry>
        </mxCell>
        <mxCell id="ne0JyadZq1jZcnPS88El-120" value="Add &quot;obstacles in the end&quot; to path planning" style="rounded=0;whiteSpace=wrap;html=1;" vertex="1" parent="WIyWlLk6GJQsqaUBKTNV-1">
          <mxGeometry x="-1830" y="840" width="120" height="60" as="geometry" />
        </mxCell>
        <mxCell id="ne0JyadZq1jZcnPS88El-131" style="edgeStyle=orthogonalEdgeStyle;rounded=0;orthogonalLoop=1;jettySize=auto;html=1;exitX=0;exitY=0.5;exitDx=0;exitDy=0;entryX=1;entryY=0.5;entryDx=0;entryDy=0;" edge="1" parent="WIyWlLk6GJQsqaUBKTNV-1" source="ne0JyadZq1jZcnPS88El-113" target="ne0JyadZq1jZcnPS88El-109">
          <mxGeometry relative="1" as="geometry" />
        </mxCell>
        <mxCell id="ne0JyadZq1jZcnPS88El-113" value="Remove &quot;obstacles on the road&quot; to path planning" style="rounded=0;whiteSpace=wrap;html=1;" vertex="1" parent="WIyWlLk6GJQsqaUBKTNV-1">
          <mxGeometry x="-2030" y="720" width="120" height="60" as="geometry" />
        </mxCell>
      </root>
    </mxGraphModel>
  </diagram>
</mxfile>
